<svg xmlns="http://www.w3.org/2000/svg" viewBox="0 0 760 470" width="760" height="470" font-family="'Archivo','Helvetica Neue',Arial,sans-serif" role="img" aria-label="Kosten per taak"><rect x="1" y="1" width="758" height="468" rx="16" fill="#FAF8F2" stroke="#DAD5C7" stroke-width="1.5"/><rect x="30" y="30" width="16" height="16" rx="3" fill="#1C7A48"/><text x="54" y="44" font-size="23" font-weight="800" fill="#131210" letter-spacing="-0.5">Kosten per taak</text><text x="30" y="70" font-size="13" fill="#6E6A5E">Gewogen gemiddelde kosten (USD) per taak · lager is beter</text><line x1="24" y1="354" x2="736" y2="354" stroke="#DAD5C7" stroke-width="1"/><rect x="24.0" y="350.4" width="58.6" height="3.6" rx="4" fill="#CFC8B8"/><text x="53.3" y="344.4" font-size="12" font-weight="700" fill="#131210" text-anchor="middle">$0.04</text><text x="53.3" y="368.0" font-size="10.5" font-weight="500" fill="#33302A" text-anchor="end" transform="rotate(-38 53.3 368.0)">DeepSeek V4 Pro</text><rect x="96.6" y="348.5" width="58.6" height="5.5" rx="4" fill="#CFC8B8"/><text x="125.9" y="342.5" font-size="12" font-weight="700" fill="#131210" text-anchor="middle">$0.06</text><text x="125.9" y="368.0" font-size="10.5" font-weight="500" fill="#33302A" text-anchor="end" transform="rotate(-38 125.9 368.0)">gpt-oss-120b</text><rect x="169.2" y="343.1" width="58.6" height="10.9" rx="4" fill="#CFC8B8"/><text x="198.5" y="337.1" font-size="12" font-weight="700" fill="#131210" text-anchor="middle">$0.12</text><text x="198.5" y="368.0" font-size="10.5" font-weight="500" fill="#33302A" text-anchor="end" transform="rotate(-38 198.5 368.0)">MiniMax-M3</text><rect x="241.8" y="332.2" width="58.6" height="21.8" rx="4" fill="#CFC8B8"/><text x="271.1" y="326.2" font-size="12" font-weight="700" fill="#131210" text-anchor="middle">$0.24</text><text x="271.1" y="368.0" font-size="10.5" font-weight="500" fill="#33302A" text-anchor="end" transform="rotate(-38 271.1 368.0)">Nemotron 3 Ultra</text><rect x="314.4" y="325.8" width="58.6" height="28.2" rx="4" fill="#CFC8B8"/><text x="343.7" y="341.8" font-size="12" font-weight="700" fill="#ffffff" text-anchor="middle">$0.31</text><text x="343.7" y="368.0" font-size="10.5" font-weight="500" fill="#33302A" text-anchor="end" transform="rotate(-38 343.7 368.0)">Grok 4.5</text><rect x="387.0" y="322.2" width="58.6" height="31.8" rx="4" fill="#CFC8B8"/><text x="416.3" y="338.2" font-size="12" font-weight="700" fill="#ffffff" text-anchor="middle">$0.35</text><text x="416.3" y="368.0" font-size="10.5" font-weight="500" fill="#33302A" text-anchor="end" transform="rotate(-38 416.3 368.0)">Kimi K2.6</text><rect x="459.6" y="320.4" width="58.6" height="33.6" rx="4" fill="#CFC8B8"/><text x="488.9" y="336.4" font-size="12" font-weight="700" fill="#ffffff" text-anchor="middle">$0.37</text><text x="488.9" y="368.0" font-size="10.5" font-weight="500" fill="#33302A" text-anchor="end" transform="rotate(-38 488.9 368.0)">GLM-5.2</text><rect x="532.2" y="300.4" width="58.6" height="53.6" rx="4" fill="#CFC8B8"/><text x="561.5" y="316.4" font-size="12" font-weight="700" fill="#ffffff" text-anchor="middle">$0.59</text><text x="561.5" y="368.0" font-size="10.5" font-weight="500" fill="#33302A" text-anchor="end" transform="rotate(-38 561.5 368.0)">Gemini 3.5 Flash</text><rect x="604.8" y="275.8" width="58.6" height="78.2" rx="4" fill="#CFC8B8"/><text x="634.1" y="291.8" font-size="12" font-weight="700" fill="#ffffff" text-anchor="middle">$0.86</text><text x="634.1" y="368.0" font-size="10.5" font-weight="500" fill="#33302A" text-anchor="end" transform="rotate(-38 634.1 368.0)">GPT-5.5</text><rect x="677.4" y="104.0" width="58.6" height="250.0" rx="4" fill="#1C7A48"/><text x="706.7" y="120.0" font-size="12" font-weight="700" fill="#ffffff" text-anchor="middle">$2.75</text><text x="706.7" y="368.0" font-size="10.5" font-weight="700" fill="#1C7A48" text-anchor="end" transform="rotate(-38 706.7 368.0)">Claude Fable 5</text><text x="736" y="452" font-size="11" fill="#6E6A5E" text-anchor="end">Bron: Artificial Analysis</text></svg>